<?xml version="1.0" encoding="UTF-8" standalone="no"?>
<svg width="451px" height="201px" viewBox="0 0 451 201" version="1.1" xmlns="http://www.w3.org/2000/svg" xmlns:xlink="http://www.w3.org/1999/xlink" xmlns:sketch="http://www.bohemiancoding.com/sketch/ns">
    <!-- Generator: Sketch 3.1 (8751) - http://www.bohemiancoding.com/sketch -->
    <title>CHF 2</title>
    <desc>Created with Sketch.</desc>
    <defs></defs>
    <g id="Page-1" stroke="none" stroke-width="1" fill="none" fill-rule="evenodd" sketch:type="MSPage">
        <g id="CHF" sketch:type="MSLayerGroup">
            <g id="Page-1">
                <path d="M174.139456,168.5 L161.516068,174.989357 L163.926921,161.244678 L153.714385,151.510643 L167.827762,149.505322 L174.139456,137 L180.45115,149.505322 L194.564527,151.510643 L184.351991,161.244678 L186.762844,174.989357 L174.139456,168.5 Z" id="Star-1" fill="#3D617F" sketch:type="MSShapeGroup"></path>
                <path d="M235.5,31.5 L222.876612,37.9893569 L225.287465,24.2446784 L215.074929,14.5106431 L229.188306,12.5053216 L235.5,0 L241.811694,12.5053216 L255.925071,14.5106431 L245.712535,24.2446784 L248.123388,37.9893569 L235.5,31.5 Z" id="Star-2" fill="#3D617F" sketch:type="MSShapeGroup"></path>
                <path d="M296.860544,56.5 L284.237156,62.9893569 L286.648009,49.2446784 L276.435473,39.5106431 L290.54885,37.5053216 L296.860544,25 L303.172238,37.5053216 L317.285615,39.5106431 L307.073079,49.2446784 L309.483932,62.9893569 L296.860544,56.5 Z" id="Star-3" fill="#3D617F" sketch:type="MSShapeGroup"></path>
                <path d="M174.139456,52.5 L161.516068,58.9893569 L163.926921,45.2446784 L153.714385,35.5106431 L167.827762,33.5053216 L174.139456,21 L180.45115,33.5053216 L194.564527,35.5106431 L184.351991,45.2446784 L186.762844,58.9893569 L174.139456,52.5 Z" id="Star-5" fill="#3D617F" sketch:type="MSShapeGroup"></path>
                <path d="M235.5,194.5 L222.876612,200.989357 L225.287465,187.244678 L215.074929,177.510643 L229.188306,175.505322 L235.5,163 L241.811694,175.505322 L255.925071,177.510643 L245.712535,187.244678 L248.123388,200.989357 L235.5,194.5 Z" id="Star-4" fill="#3D617F" sketch:type="MSShapeGroup"></path>
                <path d="M296.860544,166.5 L284.237156,172.989357 L286.648009,159.244678 L276.435473,149.510643 L290.54885,147.505322 L296.860544,135 L303.172238,147.505322 L317.285615,149.510643 L307.073079,159.244678 L309.483932,172.989357 L296.860544,166.5 Z" id="Star-6" fill="#3D617F" sketch:type="MSShapeGroup"></path>
                <text id="Colonial-Heritage-Foundation" fill="#B71F2A" sketch:type="MSTextLayer" font-family="Edwardian Script ITC" font-size="49.2062966" font-weight="normal">
                    <tspan x="0" y="116" fill="#000000">Colonial Heritage Foundation</tspan>
                </text>
            </g>
        </g>
    </g>
</svg>