<?xml version="1.0" encoding="UTF-8" standalone="no"?>
<svg width="533px" height="226px" viewBox="0 0 533 226" version="1.1" xmlns="http://www.w3.org/2000/svg" xmlns:xlink="http://www.w3.org/1999/xlink" xmlns:sketch="http://www.bohemiancoding.com/sketch/ns">
    <!-- Generator: Sketch 3.1 (8751) - http://www.bohemiancoding.com/sketch -->
    <title>Slice 2</title>
    <desc>Created with Sketch.</desc>
    <defs></defs>
    <g id="Page-1" stroke="none" stroke-width="1" fill="none" fill-rule="evenodd" sketch:type="MSPage">
        <polygon id="Star-1" fill="#3A3365" sketch:type="MSShapeGroup" points="200 185.5 187.65651 191.989357 190.013907 178.244678 180.027813 168.510643 193.828255 166.505322 200 154 206.171745 166.505322 219.972187 168.510643 209.986093 178.244678 212.34349 191.989357 "></polygon>
        <polygon id="Star-2" fill="#3A3365" sketch:type="MSShapeGroup" points="260 41.5 247.65651 47.9893569 250.013907 34.2446784 240.027813 24.5106431 253.828255 22.5053216 260 10 266.171745 22.5053216 279.972187 24.5106431 269.986093 34.2446784 272.34349 47.9893569 "></polygon>
        <polygon id="Star-3" fill="#3A3365" sketch:type="MSShapeGroup" points="320 66.5 307.65651 72.9893569 310.013907 59.2446784 300.027813 49.5106431 313.828255 47.5053216 320 35 326.171745 47.5053216 339.972187 49.5106431 329.986093 59.2446784 332.34349 72.9893569 "></polygon>
        <polygon id="Star-5" fill="#3A3365" sketch:type="MSShapeGroup" points="200 62.5 187.65651 68.9893569 190.013907 55.2446784 180.027813 45.5106431 193.828255 43.5053216 200 31 206.171745 43.5053216 219.972187 45.5106431 209.986093 55.2446784 212.34349 68.9893569 "></polygon>
        <polygon id="Star-4" fill="#3A3365" sketch:type="MSShapeGroup" points="260 211.5 247.65651 217.989357 250.013907 204.244678 240.027813 194.510643 253.828255 192.505322 260 180 266.171745 192.505322 279.972187 194.510643 269.986093 204.244678 272.34349 217.989357 "></polygon>
        <polygon id="Star-6" fill="#3A3365" sketch:type="MSShapeGroup" points="320 183.5 307.65651 189.989357 310.013907 176.244678 300.027813 166.510643 313.828255 164.505322 320 152 326.171745 164.505322 339.972187 166.510643 329.986093 176.244678 332.34349 189.989357 "></polygon>
        <text id="Colonial-Heritage-Fo" sketch:type="MSTextLayer" font-family="Edwardian Script ITC" font-size="58" font-weight="normal" fill="#B71F2A">
            <tspan x="0" y="133">Colonial Heritage Foundation</tspan>
        </text>
    </g>
</svg>