<?xml version="1.0" encoding="UTF-8" standalone="no"?>
<svg width="807px" height="321px" viewBox="0 0 807 321" version="1.1" xmlns="http://www.w3.org/2000/svg" xmlns:xlink="http://www.w3.org/1999/xlink" xmlns:sketch="http://www.bohemiancoding.com/sketch/ns">
    <!-- Generator: Sketch 3.1 (8751) - http://www.bohemiancoding.com/sketch -->
    <title>Slice 2</title>
    <desc>Created with Sketch.</desc>
    <defs></defs>
    <g id="Page-1" stroke="none" stroke-width="1" fill="none" fill-rule="evenodd" sketch:type="MSPage">
        <polygon id="Star-1" fill="#3A3365" sketch:type="MSShapeGroup" points="301 268.5 281.603087 278.697561 285.307567 257.09878 269.615135 241.802439 291.301543 238.65122 301 219 310.698457 238.65122 332.384865 241.802439 316.692433 257.09878 320.396913 278.697561 "></polygon>
        <polygon id="Star-2" fill="#3A3365" sketch:type="MSShapeGroup" points="390.5 49.0634766 371.103087 59.2610374 374.807567 37.662257 359.115135 22.3659157 380.801543 19.2146962 390.5 -0.436523438 400.198457 19.2146962 421.884865 22.3659157 406.192433 37.662257 409.896913 59.2610374 "></polygon>
        <polygon id="Star-3" fill="#3A3365" sketch:type="MSShapeGroup" points="480.5 84.0634766 461.103087 94.2610374 464.807567 72.662257 449.115135 57.3659157 470.801543 54.2146962 480.5 34.5634766 490.198457 54.2146962 511.884865 57.3659157 496.192433 72.662257 499.896913 94.2610374 "></polygon>
        <polygon id="Star-5" fill="#3A3365" sketch:type="MSShapeGroup" points="300.5 80.0634766 281.103087 90.2610374 284.807567 68.662257 269.115135 53.3659157 290.801543 50.2146962 300.5 30.5634766 310.198457 50.2146962 331.884865 53.3659157 316.192433 68.662257 319.896913 90.2610374 "></polygon>
        <polygon id="Star-4" fill="#3A3365" sketch:type="MSShapeGroup" points="390.5 304.063477 371.103087 314.261037 374.807567 292.662257 359.115135 277.365916 380.801543 274.214696 390.5 254.563477 400.198457 274.214696 421.884865 277.365916 406.192433 292.662257 409.896913 314.261037 "></polygon>
        <polygon id="Star-6" fill="#3A3365" sketch:type="MSShapeGroup" points="480.5 266.063477 461.103087 276.261037 464.807567 254.662257 449.115135 239.365916 470.801543 236.214696 480.5 216.563477 490.198457 236.214696 511.884865 239.365916 496.192433 254.662257 499.896913 276.261037 "></polygon>
        <text id="Colonial-Heritage-Fo" sketch:type="MSTextLayer" font-family="Edwardian Script ITC" font-size="90" font-weight="normal" fill="#B71F2A">
            <tspan x="-13" y="180">Colonial Heritage Foundation</tspan>
        </text>
    </g>
</svg>