<?xml version="1.0" encoding="UTF-8" standalone="no"?>
<svg width="891px" height="413px" viewBox="0 0 891 413" version="1.1" xmlns="http://www.w3.org/2000/svg" xmlns:xlink="http://www.w3.org/1999/xlink" xmlns:sketch="http://www.bohemiancoding.com/sketch/ns">
    <!-- Generator: Sketch 3.2.2 (9983) - http://www.bohemiancoding.com/sketch -->
    <title>hero-logo3</title>
    <desc>Created with Sketch.</desc>
    <defs></defs>
    <g id="Page-1" stroke="none" stroke-width="1" fill="none" fill-rule="evenodd" sketch:type="MSPage">
        <g id="Group-3-+-hero-logo" sketch:type="MSLayerGroup" transform="translate(-17.000000, -1.000000)" fill="#FFFFFF">
            <g id="Group-3" transform="translate(259.000000, 0.000000)" sketch:type="MSShapeGroup">
                <g id="Star-4-+-Star-3" transform="translate(190.919879, 207.503460) rotate(-90.000000) translate(-190.919879, -207.503460) translate(-15.845389, 194.914099)">
                    <polygon id="Star-4" points="400.922898 17.2430046 393.512314 22.774367 396.490594 14.0274156 388.932321 8.69903413 398.183583 8.82448325 400.922898 0 403.662213 8.82448325 412.913474 8.69903413 405.355202 14.0274156 408.333482 22.774367 "></polygon>
                    <polygon id="Star-3" points="12.6076383 17.2430046 5.19705444 22.774367 8.17533399 14.0274156 0.61706174 8.69903413 9.86832359 8.82448325 12.6076383 0 15.346953 8.82448325 24.5982149 8.69903413 17.0399426 14.0274156 20.0182222 22.774367 "></polygon>
                </g>
                <g id="Star-4-+-Star-4" transform="translate(190.919879, 207.503460) rotate(-124.000000) translate(-190.919879, -207.503460) translate(-15.845389, 194.914099)">
                    <polygon id="Star-4" points="400.922898 17.2430046 393.512314 22.774367 396.490594 14.0274156 388.932321 8.69903413 398.183583 8.82448325 400.922898 0 403.662213 8.82448325 412.913474 8.69903413 405.355202 14.0274156 408.333482 22.774367 "></polygon>
                    <polygon id="Star-3" points="12.6076383 17.2430046 5.19705444 22.774367 8.17533399 14.0274156 0.61706174 8.69903413 9.86832359 8.82448325 12.6076383 0 15.346953 8.82448325 24.5982149 8.69903413 17.0399426 14.0274156 20.0182222 22.774367 "></polygon>
                </g>
                <g id="Star-4-+-Star-5" transform="translate(190.919879, 207.503460) rotate(-55.000000) translate(-190.919879, -207.503460) translate(-15.845389, 194.914099)">
                    <polygon id="Star-4" points="400.922898 17.2430046 393.512314 22.774367 396.490594 14.0274156 388.932321 8.69903413 398.183583 8.82448325 400.922898 0 403.662213 8.82448325 412.913474 8.69903413 405.355202 14.0274156 408.333482 22.774367 "></polygon>
                    <polygon id="Star-3" points="12.6076383 17.2430046 5.19705444 22.774367 8.17533399 14.0274156 0.61706174 8.69903413 9.86832359 8.82448325 12.6076383 0 15.346953 8.82448325 24.5982149 8.69903413 17.0399426 14.0274156 20.0182222 22.774367 "></polygon>
                </g>
                <g id="Star-4-+-Star-6" transform="translate(190.919879, 207.503460) rotate(-153.000000) translate(-190.919879, -207.503460) translate(-15.845389, 194.914099)">
                    <polygon id="Star-4" points="400.922898 17.2430046 393.512314 22.774367 396.490594 14.0274156 388.932321 8.69903413 398.183583 8.82448325 400.922898 0 403.662213 8.82448325 412.913474 8.69903413 405.355202 14.0274156 408.333482 22.774367 "></polygon>
                    <polygon id="Star-3" points="12.6076383 17.2430046 5.19705444 22.774367 8.17533399 14.0274156 0.61706174 8.69903413 9.86832359 8.82448325 12.6076383 0 15.346953 8.82448325 24.5982149 8.69903413 17.0399426 14.0274156 20.0182222 22.774367 "></polygon>
                </g>
                <g id="Star-4-+-Star-7" transform="translate(190.919879, 207.503460) rotate(-209.000000) translate(-190.919879, -207.503460) translate(-15.845389, 194.914099)">
                    <polygon id="Star-4" points="400.922898 17.2430046 393.512314 22.774367 396.490594 14.0274156 388.932321 8.69903413 398.183583 8.82448325 400.922898 0 403.662213 8.82448325 412.913474 8.69903413 405.355202 14.0274156 408.333482 22.774367 "></polygon>
                    <polygon id="Star-3" points="12.6076383 17.2430046 5.19705444 22.774367 8.17533399 14.0274156 0.61706174 8.69903413 9.86832359 8.82448325 12.6076383 0 15.346953 8.82448325 24.5982149 8.69903413 17.0399426 14.0274156 20.0182222 22.774367 "></polygon>
                </g>
            </g>
            <text id="Colonial-Heritage-Fo" sketch:type="MSTextLayer" font-family="Edwardian Script ITC" font-size="100.238342" font-weight="normal" sketch:alignment="middle">
                <tspan x="0.629962355" y="231.563403">Colonial Heritage Foundation</tspan>
            </text>
        </g>
    </g>
</svg>