<?xml version="1.0" encoding="UTF-8" standalone="no"?>
<svg width="1030px" height="1031px" viewBox="0 0 1030 1031" version="1.1" xmlns="http://www.w3.org/2000/svg" xmlns:xlink="http://www.w3.org/1999/xlink" xmlns:sketch="http://www.bohemiancoding.com/sketch/ns">
    <!-- Generator: Sketch 3.2.2 (9983) - http://www.bohemiancoding.com/sketch -->
    <title>hero-logo</title>
    <desc>Created with Sketch.</desc>
    <defs></defs>
    <g id="Page-1" stroke="none" stroke-width="1" fill="none" fill-rule="evenodd" sketch:type="MSPage">
        <g id="Group-2" sketch:type="MSLayerGroup" transform="translate(-2.000000, -1.000000)" fill="#FFFFFF">
            <polygon id="Star-1" sketch:type="MSShapeGroup" points="1001.72499 528.148398 983.216427 541.9835 990.654932 520.105532 971.777508 506.778128 994.883316 507.091902 1001.72499 485.020011 1008.56666 507.091902 1031.67247 506.778128 1012.79504 520.105532 1020.23355 541.9835 "></polygon>
            <polygon id="Star-2" sketch:type="MSShapeGroup" points="31.8747972 528.148398 13.3662375 541.9835 20.8047425 520.105532 1.92731854 506.778128 25.0331271 507.091902 31.8747972 485.020011 38.7164673 507.091902 61.8222758 506.778128 42.9448519 520.105532 50.3833569 541.9835 "></polygon>
            <g id="Star-4-+-Star-3" transform="translate(516.799892, 516.508653) rotate(-90.000000) translate(-516.799892, -516.508653) translate(0.386155, 485.020011)" sketch:type="MSShapeGroup">
                <polygon id="Star-4" points="1001.33883 43.1283869 982.830272 56.9634894 990.268777 35.0855213 971.391353 21.7581168 994.497162 22.0718915 1001.33883 0 1008.1805 22.0718915 1031.28631 21.7581168 1012.40889 35.0855213 1019.84739 56.9634894 "></polygon>
                <polygon id="Star-3" points="31.4886425 43.1283869 12.9800828 56.9634894 20.4185878 35.0855213 1.54116386 21.7581168 24.6469724 22.0718915 31.4886425 0 38.3303126 22.0718915 61.4361212 21.7581168 42.5586972 35.0855213 49.9972022 56.9634894 "></polygon>
            </g>
            <g id="Star-4-+-Star-4" transform="translate(516.799892, 516.508653) rotate(-127.000000) translate(-516.799892, -516.508653) translate(0.386155, 485.020011)" sketch:type="MSShapeGroup">
                <polygon id="Star-4" points="1001.33883 43.1283869 982.830272 56.9634894 990.268777 35.0855213 971.391353 21.7581168 994.497162 22.0718915 1001.33883 0 1008.1805 22.0718915 1031.28631 21.7581168 1012.40889 35.0855213 1019.84739 56.9634894 "></polygon>
                <polygon id="Star-3" points="31.4886425 43.1283869 12.9800828 56.9634894 20.4185878 35.0855213 1.54116386 21.7581168 24.6469724 22.0718915 31.4886425 0 38.3303126 22.0718915 61.4361212 21.7581168 42.5586972 35.0855213 49.9972022 56.9634894 "></polygon>
            </g>
            <g id="Star-4-+-Star-5" transform="translate(516.799892, 516.508653) rotate(-55.000000) translate(-516.799892, -516.508653) translate(0.386155, 485.020011)" sketch:type="MSShapeGroup">
                <polygon id="Star-4" points="1001.33883 43.1283869 982.830272 56.9634894 990.268777 35.0855213 971.391353 21.7581168 994.497162 22.0718915 1001.33883 0 1008.1805 22.0718915 1031.28631 21.7581168 1012.40889 35.0855213 1019.84739 56.9634894 "></polygon>
                <polygon id="Star-3" points="31.4886425 43.1283869 12.9800828 56.9634894 20.4185878 35.0855213 1.54116386 21.7581168 24.6469724 22.0718915 31.4886425 0 38.3303126 22.0718915 61.4361212 21.7581168 42.5586972 35.0855213 49.9972022 56.9634894 "></polygon>
            </g>
            <g id="Star-4-+-Star-6" transform="translate(516.799892, 516.508653) rotate(-153.000000) translate(-516.799892, -516.508653) translate(0.386155, 485.020011)" sketch:type="MSShapeGroup">
                <polygon id="Star-4" points="1001.33883 43.1283869 982.830272 56.9634894 990.268777 35.0855213 971.391353 21.7581168 994.497162 22.0718915 1001.33883 0 1008.1805 22.0718915 1031.28631 21.7581168 1012.40889 35.0855213 1019.84739 56.9634894 "></polygon>
                <polygon id="Star-3" points="31.4886425 43.1283869 12.9800828 56.9634894 20.4185878 35.0855213 1.54116386 21.7581168 24.6469724 22.0718915 31.4886425 0 38.3303126 22.0718915 61.4361212 21.7581168 42.5586972 35.0855213 49.9972022 56.9634894 "></polygon>
            </g>
            <g id="Star-4-+-Star-7" transform="translate(516.799892, 516.508653) rotate(-209.000000) translate(-516.799892, -516.508653) translate(0.386155, 485.020011)" sketch:type="MSShapeGroup">
                <polygon id="Star-4" points="1001.33883 43.1283869 982.830272 56.9634894 990.268777 35.0855213 971.391353 21.7581168 994.497162 22.0718915 1001.33883 0 1008.1805 22.0718915 1031.28631 21.7581168 1012.40889 35.0855213 1019.84739 56.9634894 "></polygon>
                <polygon id="Star-3" points="31.4886425 43.1283869 12.9800828 56.9634894 20.4185878 35.0855213 1.54116386 21.7581168 24.6469724 22.0718915 31.4886425 0 38.3303126 22.0718915 61.4361212 21.7581168 42.5586972 35.0855213 49.9972022 56.9634894 "></polygon>
            </g>
            <text id="Colonial-Heritage-Fo" sketch:type="MSTextLayer" font-family="Edwardian Script ITC" font-size="97.7202073" font-weight="normal" sketch:alignment="middle">
                <tspan x="78.9062399" y="539.629529">Colonial Heritage Foundation</tspan>
            </text>
        </g>
        <g id="Group-3" sketch:type="MSLayerGroup" transform="translate(-2.000000, -1.000000)" fill="#FFFFFF">
            <polygon id="Star-1" sketch:type="MSShapeGroup" points="1001.72499 528.148398 983.216427 541.9835 990.654932 520.105532 971.777508 506.778128 994.883316 507.091902 1001.72499 485.020011 1008.56666 507.091902 1031.67247 506.778128 1012.79504 520.105532 1020.23355 541.9835 "></polygon>
            <polygon id="Star-2" sketch:type="MSShapeGroup" points="31.8747972 528.148398 13.3662375 541.9835 20.8047425 520.105532 1.92731854 506.778128 25.0331271 507.091902 31.8747972 485.020011 38.7164673 507.091902 61.8222758 506.778128 42.9448519 520.105532 50.3833569 541.9835 "></polygon>
            <g id="Star-4-+-Star-3" transform="translate(516.799892, 516.508653) rotate(-90.000000) translate(-516.799892, -516.508653) translate(0.386155, 485.020011)" sketch:type="MSShapeGroup">
                <polygon id="Star-4" points="1001.33883 43.1283869 982.830272 56.9634894 990.268777 35.0855213 971.391353 21.7581168 994.497162 22.0718915 1001.33883 0 1008.1805 22.0718915 1031.28631 21.7581168 1012.40889 35.0855213 1019.84739 56.9634894 "></polygon>
                <polygon id="Star-3" points="31.4886425 43.1283869 12.9800828 56.9634894 20.4185878 35.0855213 1.54116386 21.7581168 24.6469724 22.0718915 31.4886425 0 38.3303126 22.0718915 61.4361212 21.7581168 42.5586972 35.0855213 49.9972022 56.9634894 "></polygon>
            </g>
            <g id="Star-4-+-Star-4" transform="translate(516.799892, 516.508653) rotate(-127.000000) translate(-516.799892, -516.508653) translate(0.386155, 485.020011)" sketch:type="MSShapeGroup">
                <polygon id="Star-4" points="1001.33883 43.1283869 982.830272 56.9634894 990.268777 35.0855213 971.391353 21.7581168 994.497162 22.0718915 1001.33883 0 1008.1805 22.0718915 1031.28631 21.7581168 1012.40889 35.0855213 1019.84739 56.9634894 "></polygon>
                <polygon id="Star-3" points="31.4886425 43.1283869 12.9800828 56.9634894 20.4185878 35.0855213 1.54116386 21.7581168 24.6469724 22.0718915 31.4886425 0 38.3303126 22.0718915 61.4361212 21.7581168 42.5586972 35.0855213 49.9972022 56.9634894 "></polygon>
            </g>
            <g id="Star-4-+-Star-5" transform="translate(516.799892, 516.508653) rotate(-55.000000) translate(-516.799892, -516.508653) translate(0.386155, 485.020011)" sketch:type="MSShapeGroup">
                <polygon id="Star-4" points="1001.33883 43.1283869 982.830272 56.9634894 990.268777 35.0855213 971.391353 21.7581168 994.497162 22.0718915 1001.33883 0 1008.1805 22.0718915 1031.28631 21.7581168 1012.40889 35.0855213 1019.84739 56.9634894 "></polygon>
                <polygon id="Star-3" points="31.4886425 43.1283869 12.9800828 56.9634894 20.4185878 35.0855213 1.54116386 21.7581168 24.6469724 22.0718915 31.4886425 0 38.3303126 22.0718915 61.4361212 21.7581168 42.5586972 35.0855213 49.9972022 56.9634894 "></polygon>
            </g>
            <g id="Star-4-+-Star-6" transform="translate(516.799892, 516.508653) rotate(-153.000000) translate(-516.799892, -516.508653) translate(0.386155, 485.020011)" sketch:type="MSShapeGroup">
                <polygon id="Star-4" points="1001.33883 43.1283869 982.830272 56.9634894 990.268777 35.0855213 971.391353 21.7581168 994.497162 22.0718915 1001.33883 0 1008.1805 22.0718915 1031.28631 21.7581168 1012.40889 35.0855213 1019.84739 56.9634894 "></polygon>
                <polygon id="Star-3" points="31.4886425 43.1283869 12.9800828 56.9634894 20.4185878 35.0855213 1.54116386 21.7581168 24.6469724 22.0718915 31.4886425 0 38.3303126 22.0718915 61.4361212 21.7581168 42.5586972 35.0855213 49.9972022 56.9634894 "></polygon>
            </g>
            <g id="Star-4-+-Star-7" transform="translate(516.799892, 516.508653) rotate(-209.000000) translate(-516.799892, -516.508653) translate(0.386155, 485.020011)" sketch:type="MSShapeGroup">
                <polygon id="Star-4" points="1001.33883 43.1283869 982.830272 56.9634894 990.268777 35.0855213 971.391353 21.7581168 994.497162 22.0718915 1001.33883 0 1008.1805 22.0718915 1031.28631 21.7581168 1012.40889 35.0855213 1019.84739 56.9634894 "></polygon>
                <polygon id="Star-3" points="31.4886425 43.1283869 12.9800828 56.9634894 20.4185878 35.0855213 1.54116386 21.7581168 24.6469724 22.0718915 31.4886425 0 38.3303126 22.0718915 61.4361212 21.7581168 42.5586972 35.0855213 49.9972022 56.9634894 "></polygon>
            </g>
            <text id="Colonial-Heritage-Fo" sketch:type="MSTextLayer" font-family="Edwardian Script ITC" font-size="97.7202073" font-weight="normal" sketch:alignment="middle">
                <tspan x="78.9062399" y="539.629529">Colonial Heritage Foundation</tspan>
            </text>
        </g>
    </g>
</svg>