<?xml version="1.0" standalone="no"?>
<!DOCTYPE svg PUBLIC "-//W3C//DTD SVG 20010904//EN"
 "http://www.w3.org/TR/2001/REC-SVG-20010904/DTD/svg10.dtd">
<svg version="1.0" xmlns="http://www.w3.org/2000/svg"
 width="400.000000pt" height="91.000000pt" viewBox="0 0 400.000000 91.000000"
 preserveAspectRatio="xMidYMid meet">
<metadata>
Created by potrace 1.11, written by Peter Selinger 2001-2013
</metadata>
<g transform="translate(0.000000,91.000000) scale(0.100000,-0.100000)"
fill="#000000" stroke="none">
<path d="M2106 874 c-34 -33 -6 -97 39 -90 28 4 32 42 6 56 -12 6 -21 15 -21
19 0 19 30 19 54 0 40 -32 34 -66 -25 -140 -28 -35 -60 -81 -71 -102 -24 -47
-58 -178 -58 -223 0 -26 -4 -32 -15 -28 -8 4 -13 9 -11 13 2 3 -2 15 -10 25
-13 18 -14 18 -20 2 -4 -11 -1 -22 7 -27 12 -8 12 -10 0 -18 -8 -5 -11 -16 -8
-25 5 -12 -1 -19 -18 -26 -13 -5 -29 -18 -34 -29 -16 -29 -13 -38 5 -15 14 17
15 17 10 1 -3 -10 -6 -23 -6 -29 0 -6 -7 -8 -15 -4 -8 3 -15 1 -15 -3 0 -14
112 -23 184 -16 80 9 83 20 26 78 -22 22 -38 42 -35 45 3 3 -2 13 -10 22 -14
16 -14 17 10 13 22 -5 25 -2 25 21 0 14 -5 26 -12 26 -6 0 -1 11 12 25 13 14
20 25 16 25 -4 0 6 13 22 29 27 28 67 123 92 221 15 55 0 119 -36 154 -20 20
-68 21 -88 0z"/>
<path d="M2130 743 c-53 -40 -119 -103 -118 -112 0 -3 0 -20 -1 -38 -1 -24 -5
-31 -15 -27 -20 8 -14 -92 8 -132 8 -16 15 -24 16 -19 0 6 7 40 14 76 17 78
42 130 104 217 24 35 43 64 41 66 -2 2 -24 -12 -49 -31z"/>
<path d="M2420 687 c-24 -12 -50 -34 -58 -47 l-16 -25 24 21 c38 33 65 44 106
44 61 0 174 -65 136 -78 -40 -13 -88 -73 -128 -158 -49 -107 -87 -144 -145
-144 -21 0 -39 5 -39 11 0 5 -5 7 -11 4 -5 -4 -20 1 -32 12 -18 15 -17 13 3
-13 14 -17 26 -28 28 -24 1 3 16 4 33 2 79 -12 192 61 218 141 7 21 19 37 27
37 8 0 14 5 14 11 0 5 -4 7 -10 4 -17 -11 -11 28 10 63 23 38 63 60 82 45 18
-13 40 -11 46 5 3 9 -3 11 -22 6 -16 -4 -26 -2 -26 5 0 6 -6 11 -13 11 -7 0
-26 13 -42 30 -33 34 -83 60 -117 60 -14 0 -44 -10 -68 -23z"/>
<path d="M964 653 c8 -24 -34 -110 -73 -152 -59 -62 -51 -35 35 119 l25 45
-37 -40 c-20 -22 -58 -74 -84 -115 -26 -41 -61 -89 -76 -105 -16 -17 -25 -27
-19 -23 18 15 23 7 18 -30 -7 -51 13 -68 61 -52 19 6 37 17 40 25 8 23 23 18
30 -10 5 -18 13 -25 32 -25 31 0 78 24 96 48 11 15 71 52 85 52 3 0 -6 -20
-20 -44 -24 -42 -24 -45 -5 -49 13 -4 24 3 35 21 50 83 65 103 88 118 38 25
40 12 5 -45 -37 -59 -37 -94 0 -100 19 -2 33 7 62 40 l37 44 -5 -37 c-5 -30
-3 -37 14 -43 27 -8 59 9 94 49 27 30 28 30 28 8 0 -33 18 -62 37 -62 13 0 14
3 6 11 -28 28 57 166 93 152 15 -6 4 -37 -36 -98 -44 -67 -47 -72 -26 -56 13
11 20 11 28 3 16 -16 39 -15 32 1 -3 8 11 45 30 83 l36 69 -38 7 c-54 9 -89
-1 -120 -34 -40 -44 -112 -112 -128 -121 -23 -13 -17 19 18 86 18 34 34 65 36
68 1 4 -9 4 -23 1 -14 -2 -32 -16 -40 -31 -19 -34 -110 -131 -124 -131 -17 0
-13 12 24 70 39 63 43 86 16 95 -19 6 -59 -10 -73 -30 -5 -7 -8 -6 -8 1 0 5 6
16 13 23 10 10 6 11 -18 5 -16 -4 -32 -12 -34 -18 -7 -18 -62 -66 -75 -66 -8
0 -11 10 -8 28 2 19 -3 33 -18 47 -19 17 -24 17 -58 6 -42 -15 -82 -48 -82
-68 0 -20 -64 -83 -84 -83 -41 0 6 115 66 159 57 42 117 128 118 169 0 22 -5
32 -16 32 -10 0 -13 -6 -10 -17z"/>
<path d="M1894 655 c9 -25 -35 -112 -79 -155 -45 -44 -45 -24 2 54 64 107 66
112 18 61 -25 -27 -67 -84 -92 -125 -26 -41 -56 -86 -67 -99 -12 -13 -16 -21
-9 -17 8 4 13 -7 15 -36 2 -33 8 -44 22 -46 14 -3 17 0 13 12 -9 24 41 144 63
151 28 9 95 82 119 130 24 48 25 75 2 83 -10 3 -12 0 -7 -13z"/>
<path d="M505 631 c-27 -9 -60 -22 -72 -29 -12 -6 -32 -12 -45 -12 -15 0 -19
-3 -10 -8 9 -6 4 -14 -18 -30 -70 -52 -107 -159 -76 -220 25 -48 70 -75 111
-68 36 7 95 50 95 69 0 6 -6 4 -12 -5 -20 -26 -81 -58 -108 -57 -21 0 -16 4
23 24 79 39 123 103 112 161 -16 90 -160 20 -182 -89 -3 -15 -10 -30 -16 -34
-18 -11 3 68 30 111 50 81 154 171 212 182 17 4 28 10 25 15 -6 11 -7 11 -69
-10z m-27 -153 c18 -18 14 -47 -13 -94 -30 -50 -73 -84 -108 -84 -34 0 -37 7
-23 61 23 90 105 156 144 117z"/>
<path d="M2785 624 c-45 -16 -81 -44 -114 -91 -12 -18 -37 -37 -54 -43 -28 -9
-29 -9 -4 -6 33 4 33 1 1 -77 -30 -74 -56 -99 -93 -92 -21 4 -22 4 -6 -3 l20
-9 -20 -6 c-13 -4 -9 -5 10 -4 17 1 35 5 40 9 53 38 88 78 114 132 18 35 42
69 54 75 12 6 14 9 5 7 -10 -3 -18 -2 -18 3 0 15 81 101 95 101 8 0 17 5 20
10 8 13 -1 12 -50 -6z"/>
<path d="M3320 550 c0 -5 -16 -27 -35 -49 -27 -30 -41 -38 -62 -35 -16 2 -20
1 -10 -2 25 -8 21 -20 -25 -71 -56 -62 -80 -82 -97 -83 -17 0 -7 43 18 79 10
14 22 36 25 49 12 37 -30 29 -50 -10 -22 -45 -94 -118 -116 -118 -26 0 -22 19
12 73 17 26 30 54 30 62 0 21 -17 27 -40 15 -16 -9 -20 -8 -20 5 0 27 -33 13
-41 -17 -8 -31 6 -47 24 -29 26 26 27 8 2 -35 -31 -52 -28 -94 6 -94 25 0 79
27 79 40 0 6 5 10 10 10 6 0 10 -6 10 -14 0 -22 27 -38 51 -31 12 4 36 22 54
41 39 40 48 43 36 11 -10 -26 3 -57 24 -57 8 0 11 7 8 19 -4 16 38 101 109
219 11 17 15 32 9 32 -6 0 -11 -4 -11 -10z"/>
<path d="M596 443 c-54 -36 -74 -121 -35 -146 42 -26 143 46 147 106 4 64 -49
83 -112 40z"/>
<path d="M2794 456 c-60 -26 -96 -96 -75 -143 10 -22 16 -25 46 -20 40 6 101
47 130 86 12 16 0 9 -30 -18 -77 -67 -128 -79 -118 -27 3 14 11 26 19 26 7 0
32 7 54 16 44 18 62 53 40 79 -15 18 -26 18 -66 1z"/>
<path d="M3392 455 c-16 -7 -51 -41 -77 -75 -26 -34 -57 -65 -69 -70 -15 -6
-16 -9 -5 -9 9 -1 27 10 40 23 l23 24 13 -29 c15 -36 42 -40 36 -5 -9 43 52
136 89 136 10 0 18 -3 18 -7 0 -10 -60 -115 -79 -138 -16 -20 -16 -20 6 -1 20
17 23 17 29 2 3 -9 16 -16 28 -16 17 0 18 2 6 10 -13 8 -9 21 27 87 l41 78
-48 1 c-27 1 -61 -5 -78 -11z"/>
<path d="M3608 443 c-21 -16 -38 -32 -38 -36 0 -5 -24 -30 -52 -57 -29 -27
-48 -49 -42 -50 5 0 23 14 39 30 l29 30 10 -32 c8 -25 17 -34 36 -35 14 -1 19
0 13 3 -7 3 -13 14 -13 24 0 40 53 130 77 130 20 0 10 -39 -25 -99 -15 -25
-28 -49 -28 -53 -1 -5 -2 -12 -3 -17 0 -5 -15 -15 -33 -22 -87 -36 -131 -120
-71 -135 52 -13 107 44 133 138 6 22 15 35 23 33 6 -3 26 8 44 25 37 35 43 37
43 12 0 -26 20 -42 50 -41 25 0 25 0 3 9 -41 16 -27 50 27 69 74 25 100 62 65
91 -28 23 -68 0 -147 -83 -42 -45 -79 -79 -83 -76 -8 9 15 63 49 117 24 39 25
42 7 42 -10 0 -31 2 -47 5 -21 4 -39 -2 -66 -22z"/>
</g>
</svg>
