<?xml version="1.0" encoding="UTF-8" standalone="no"?>
<svg width="451px" height="134px" viewBox="0 0 451 134" version="1.1" xmlns="http://www.w3.org/2000/svg" xmlns:xlink="http://www.w3.org/1999/xlink" xmlns:sketch="http://www.bohemiancoding.com/sketch/ns">
    <!-- Generator: Sketch 3.1 (8751) - http://www.bohemiancoding.com/sketch -->
    <title>Slice 2</title>
    <desc>Created with Sketch.</desc>
    <defs></defs>
    <g id="Page-1" stroke="none" stroke-width="1" fill="none" fill-rule="evenodd" sketch:type="MSPage">
        <path d="M174.425071,127.5 L161.801683,133.989357 L164.212536,120.244678 L154,110.510643 L168.113377,108.505322 L174.425071,96 L180.736765,108.505322 L194.850142,110.510643 L184.637606,120.244678 L187.048459,133.989357 L174.425071,127.5 Z" id="Star-1" fill="#3D617F" sketch:type="MSShapeGroup"></path>
        <path d="M235.425071,31.5 L222.801683,37.9893569 L225.212536,24.2446784 L215,14.5106431 L229.113377,12.5053216 L235.425071,0 L241.736765,12.5053216 L255.850142,14.5106431 L245.637606,24.2446784 L248.048459,37.9893569 L235.425071,31.5 Z" id="Star-2" fill="#3D617F" sketch:type="MSShapeGroup"></path>
        <path d="M296.425071,31.5 L283.801683,37.9893569 L286.212536,24.2446784 L276,14.5106431 L290.113377,12.5053216 L296.425071,0 L302.736765,12.5053216 L316.850142,14.5106431 L306.637606,24.2446784 L309.048459,37.9893569 L296.425071,31.5 Z" id="Star-3" fill="#3D617F" sketch:type="MSShapeGroup"></path>
        <path d="M174.425071,31.5 L161.801683,37.9893569 L164.212536,24.2446784 L154,14.5106431 L168.113377,12.5053216 L174.425071,0 L180.736765,12.5053216 L194.850142,14.5106431 L184.637606,24.2446784 L187.048459,37.9893569 L174.425071,31.5 Z" id="Star-5" fill="#3D617F" sketch:type="MSShapeGroup"></path>
        <path d="M235.425071,127.5 L222.801683,133.989357 L225.212536,120.244678 L215,110.510643 L229.113377,108.505322 L235.425071,96 L241.736765,108.505322 L255.850142,110.510643 L245.637606,120.244678 L248.048459,133.989357 L235.425071,127.5 Z" id="Star-4" fill="#3D617F" sketch:type="MSShapeGroup"></path>
        <path d="M296.425071,127.5 L283.801683,133.989357 L286.212536,120.244678 L276,110.510643 L290.113377,108.505322 L296.425071,96 L302.736765,108.505322 L316.850142,110.510643 L306.637606,120.244678 L309.048459,133.989357 L296.425071,127.5 Z" id="Star-6" fill="#3D617F" sketch:type="MSShapeGroup"></path>
        <text id="Colonial-Heritage-Foundation" fill="#B71F2A" sketch:type="MSTextLayer" font-family="Edwardian Script ITC" font-size="49.2062966" font-weight="normal">
            <tspan x="0" y="80" fill="#000000">Colonial Heritage Foundation</tspan>
        </text>
    </g>
</svg>